# This file uses centimeters as units for non-parametric coordinates.

g default
v -68.870239 0.000000 18.914822
v -67.156990 0.000000 56.253265
v 1.384011 0.000000 53.790733
v 1.384012 0.000000 -31.945694
v -25.604208 0.000000 20.591766
v -25.604208 0.000000 -28.139805
v -33.157673 0.000000 88.978355
v -55.920109 0.000000 75.097763
v -55.920109 0.000000 -8.764366
v -71.385071 0.000000 37.427017
v -12.853138 0.000000 39.964581
v -12.853138 0.000000 -31.833183
v -33.157673 0.000000 19.127056
v -33.157673 0.000000 73.627045
v -33.157673 0.000000 54.483913
v -33.157673 0.000000 39.783558
v 1.384012 0.000000 -4.532047
v 58.688129 0.000000 75.097763
v 35.925694 0.000000 73.627045
v 35.925694 0.000000 88.978355
v 69.925011 0.000000 56.253265
v 35.925694 0.000000 54.483913
v 35.925694 0.000000 39.783558
v 15.621161 0.000000 -31.833183
v 15.621161 0.000000 39.964581
v 58.688129 0.000000 -8.764366
v 35.925694 0.000000 19.127056
v 28.372232 0.000000 -28.139805
v 28.372232 0.000000 20.591766
v 74.153091 0.000000 37.427017
v 71.638260 0.000000 18.914822
vt 0.500000 0.644589
vt 0.597824 0.505522
vt 0.500000 0.192715
vt 0.737338 1.000000
vt 0.893739 0.844548
vt 0.737338 0.834209
vt 0.685437 0.369333
vt 0.500000 -0.000000
vt 0.597824 0.000791
vt 0.737338 0.649462
vt 0.970949 0.661900
vt 0.737338 0.504249
vt 1.000000 0.487683
vt 0.982720 0.357544
vt 0.737338 0.359036
vt 0.893739 0.162962
vt 0.685437 0.026755
vt 0.402176 0.505522
vt 0.262662 1.000000
vt 0.262662 0.834209
vt 0.106260 0.844548
vt 0.314563 0.369333
vt 0.402176 0.000791
vt 0.262662 0.649462
vt 0.029051 0.661900
vt 0.262662 0.504249
vt -0.000000 0.487683
vt 0.017280 0.357544
vt 0.262662 0.359036
vt 0.106260 0.162962
vt 0.314563 0.026755
vn 0.000000 1.000000 0.000000
vn 0.000000 1.000000 0.000000
vn 0.000000 1.000000 0.000000
vn 0.000000 1.000000 0.000000
vn 0.000000 1.000000 0.000000
vn 0.000000 1.000000 0.000000
vn 0.000000 1.000000 0.000000
vn 0.000000 1.000000 0.000000
vn 0.000000 1.000000 0.000000
vn 0.000000 1.000000 0.000000
vn 0.000000 1.000000 0.000000
vn 0.000000 1.000000 0.000000
vn 0.000000 1.000000 0.000000
vn 0.000000 1.000000 0.000000
vn 0.000000 1.000000 0.000000
vn 0.000000 1.000000 0.000000
vn 0.000000 1.000000 0.000000
vn 0.000000 1.000000 0.000000
vn 0.000000 1.000000 0.000000
vn 0.000000 1.000000 0.000000
vn 0.000000 1.000000 0.000000
vn 0.000000 1.000000 0.000000
vn 0.000000 1.000000 0.000000
vn 0.000000 1.000000 0.000000
vn 0.000000 1.000000 0.000000
vn 0.000000 1.000000 0.000000
vn 0.000000 1.000000 0.000000
vn 0.000000 1.000000 0.000000
vn 0.000000 1.000000 0.000000
vn 0.000000 1.000000 0.000000
vn 0.000000 1.000000 0.000000
vn 0.000000 1.000000 0.000000
vn 0.000000 1.000000 0.000000
vn 0.000000 1.000000 0.000000
vn 0.000000 1.000000 0.000000
vn 0.000000 1.000000 0.000000
vn 0.000000 1.000000 0.000000
vn 0.000000 1.000000 0.000000
vn 0.000000 1.000000 0.000000
vn 0.000000 1.000000 0.000000
vn 0.000000 1.000000 0.000000
vn 0.000000 1.000000 0.000000
vn 0.000000 1.000000 0.000000
vn 0.000000 1.000000 0.000000
vn 0.000000 1.000000 0.000000
vn 0.000000 1.000000 0.000000
vn 0.000000 1.000000 0.000000
vn 0.000000 1.000000 0.000000
vn 0.000000 1.000000 0.000000
vn 0.000000 1.000000 0.000000
vn 0.000000 1.000000 0.000000
vn 0.000000 1.000000 0.000000
vn 0.000000 1.000000 0.000000
vn 0.000000 1.000000 0.000000
vn 0.000000 1.000000 0.000000
vn 0.000000 1.000000 0.000000
vn 0.000000 1.000000 0.000000
vn 0.000000 1.000000 0.000000
vn 0.000000 1.000000 0.000000
vn 0.000000 1.000000 0.000000
vn 0.000000 1.000000 0.000000
vn 0.000000 1.000000 0.000000
vn 0.000000 1.000000 0.000000
vn 0.000000 1.000000 0.000000
vn 0.000000 1.000000 0.000000
vn 0.000000 1.000000 0.000000
vn 0.000000 1.000000 0.000000
vn 0.000000 1.000000 0.000000
vn 0.000000 1.000000 0.000000
vn 0.000000 1.000000 0.000000
vn 0.000000 1.000000 0.000000
vn 0.000000 1.000000 0.000000
vn 0.000000 1.000000 0.000000
vn 0.000000 1.000000 0.000000
vn 0.000000 1.000000 0.000000
vn 0.000000 1.000000 0.000000
vn 0.000000 1.000000 0.000000
vn 0.000000 1.000000 0.000000
vn 0.000000 1.000000 0.000000
vn 0.000000 1.000000 0.000000
vn 0.000000 1.000000 0.000000
vn 0.000000 1.000000 0.000000
vn 0.000000 1.000000 0.000000
vn 0.000000 1.000000 0.000000
vn 0.000000 1.000000 0.000000
vn 0.000000 1.000000 0.000000
vn 0.000000 1.000000 0.000000
vn 0.000000 1.000000 0.000000
vn 0.000000 1.000000 0.000000
vn 0.000000 1.000000 0.000000
s off
g EnemyShipShadow:pCube1
f 3/1/1 17/3/2 11/2/3
f 7/4/4 14/6/5 8/5/6
f 11/2/7 17/3/8 5/7/9
f 4/8/10 12/9/11 17/3/12
f 14/6/13 15/10/14 8/5/15
f 8/5/16 15/10/17 2/11/18
f 15/10/19 16/12/20 2/11/21
f 2/11/22 16/12/23 10/13/24
f 10/13/25 16/12/26 1/14/27
f 16/12/28 13/15/29 1/14/30
f 1/14/31 13/15/32 9/16/33
f 12/9/34 6/17/35 17/3/36
f 17/3/37 6/17/38 5/7/39
f 5/7/40 6/17/41 13/15/42
f 9/16/43 13/15/44 6/17/45
f 3/1/46 25/18/47 17/3/48
f 20/19/49 18/21/50 19/20/51
f 25/18/52 29/22/53 17/3/54
f 4/8/55 17/3/56 24/23/57
f 19/20/58 18/21/59 22/24/60
f 18/21/61 21/25/62 22/24/63
f 22/24/64 21/25/65 23/26/66
f 21/25/67 30/27/68 23/26/69
f 30/27/70 31/28/71 23/26/72
f 23/26/73 31/28/74 27/29/75
f 31/28/76 26/30/77 27/29/78
f 24/23/79 17/3/80 28/31/81
f 17/3/82 29/22/83 28/31/84
f 29/22/85 27/29/86 28/31/87
f 28/31/88 27/29/89 26/30/90
