# This file uses centimeters as units for non-parametric coordinates.

g default
v 3.353539 -3.201362 -17.828112
v 1.446435 23.000671 -6.565331
v 6.907895 -3.201362 -11.711004
v 2.649001 23.000671 -4.495692
v -13.616080 -3.201362 0.214487
v -5.238566 23.000671 0.087393
v -17.170437 -3.201362 -5.902619
v -6.441133 23.000671 -1.982244
v -11.580937 16.954744 0.378044
v -14.654637 16.954744 -4.911846
v 2.968503 16.954744 -15.151804
v 6.042203 16.954744 -9.861915
v -13.611489 10.024319 0.222389
v -17.165846 10.024319 -5.894718
v 3.358130 10.024319 -17.820210
v 6.912486 10.024319 -11.703104
v -3.130910 23.000671 -5.364158
v -4.605496 16.954744 -7.901944
v -5.185628 10.024319 -8.900362
v -5.190221 -3.201362 -8.908266
v -8.744577 -3.201362 -15.025373
v -8.739985 10.024319 -16.485186
v -7.679195 16.954744 -14.239473
v -4.333477 23.000671 -7.433796
v 13.769205 -3.011510 11.868561
v 4.989121 23.190521 4.561206
v 6.694429 -3.011510 11.868561
v 2.595470 23.190521 4.561206
v 6.694429 -3.011510 -11.868561
v 2.595470 23.190521 -4.561206
v 13.769205 -3.011510 -11.868561
v 4.989121 23.190521 -4.561206
v 5.530561 17.144596 -10.191072
v 11.648613 17.144596 -10.191072
v 11.648613 17.144596 10.191072
v 5.530561 17.144596 10.191072
v 6.685291 10.214170 -11.868561
v 13.760067 10.214170 -11.868561
v 13.760067 10.214170 11.868561
v 6.685291 10.214170 11.868561
v 6.250196 23.190521 0.000000
v 9.185287 17.144596 0.000000
v 10.340014 10.214170 0.000000
v 10.349154 -3.011510 0.000000
v 17.423931 -3.011510 0.000000
v 18.683828 10.214170 0.737378
v 16.209167 17.144596 0.526333
v 8.643847 23.190521 0.000000
v -17.170401 -3.224650 5.905555
v -6.441083 22.977383 1.985216
v -13.616024 -3.224650 -0.211540
v -5.238509 22.977383 -0.084417
v 6.907912 -3.224650 11.714022
v 2.649043 22.977383 4.498695
v 3.353535 -3.224650 17.831116
v 1.446469 22.977383 6.568329
v 6.042226 16.931456 9.864928
v 2.968509 16.931456 15.154807
v -14.654597 16.931456 4.914790
v -11.580879 16.931456 -0.375088
v 6.912503 10.001030 11.706120
v 3.358127 10.001030 17.823215
v -17.165810 10.001030 5.897654
v -13.611433 10.001030 -0.219440
v -3.130872 22.977383 5.367141
v -4.605466 16.931456 7.904922
v -5.185602 10.001030 8.903337
v -5.190195 -3.224650 8.911242
v -8.744572 -3.224650 15.028337
v -10.015108 10.001030 15.747230
v -8.589358 16.931456 13.713580
v -4.333446 22.977383 7.436774
v 1.104961 31.180555 -0.043409
v -1.181301 31.180555 -1.285861
v -1.181301 31.180555 1.199044
v 0.332121 4.438728 -0.463404
v -0.082006 4.438728 -0.688458
v -0.625332 4.438728 -0.983724
v -1.181301 4.438728 -1.285861
v 1.104961 4.438727 -0.043409
v -1.181301 4.438728 -0.636161
v -1.181301 4.438728 0.000000
v -1.181301 4.438728 0.636161
v -1.181301 4.438728 1.199044
v 0.263760 4.438728 0.413736
v 1.025084 4.438728 0.000000
v -0.591074 4.438728 0.878289
v -0.105982 4.438728 0.614669
vt 0.613102 0.001992
vt 0.613151 0.141644
vt 0.485405 0.141644
vt 0.485356 0.001992
vt 0.603962 0.214824
vt 0.491531 0.214824
vt 0.396435 0.141644
vt 0.396386 0.001992
vt 0.568132 0.278664
vt 0.507101 0.278664
vt 0.417876 0.214824
vt 0.358904 0.141644
vt 0.358855 0.001992
vt 0.186669 0.278664
vt 0.186717 0.139012
vt 0.314463 0.139012
vt 0.314415 0.278664
vt 0.097699 0.278664
vt 0.097747 0.139012
vt 0.197918 0.065832
vt 0.310349 0.065832
vt 0.351994 0.139012
vt 0.351946 0.278664
vt 0.124263 0.065832
vt 0.233246 0.001992
vt 0.294277 0.001992
vt 0.588498 0.611396
vt 0.597668 0.672427
vt 0.575815 0.659729
vt 0.566644 0.598698
vt 0.540104 0.694682
vt 0.518251 0.681984
vt 0.623307 0.562868
vt 0.679164 0.595324
vt 0.669530 0.707755
vt 0.571038 0.781410
vt 0.515182 0.748954
vt 0.031474 0.733845
vt 0.001880 0.606099
vt 0.066471 0.568568
vt 0.096066 0.696314
vt 0.127803 0.822815
vt 0.192395 0.785284
vt 0.192131 0.826582
vt 0.193775 0.899761
vt 0.137918 0.899761
vt 0.127540 0.826582
vt 0.199565 0.891173
vt 0.199565 0.826582
vt 0.272744 0.854758
vt 0.272744 0.910615
vt 0.737997 0.001992
vt 0.737901 0.141644
vt 0.663197 0.141644
vt 0.663294 0.001992
vt 0.715606 0.214824
vt 0.651004 0.214824
vt 0.645287 0.278664
vt 0.620012 0.278664
vt 0.941772 0.282430
vt 0.941772 0.422082
vt 0.816450 0.422082
vt 0.816450 0.282430
vt 0.924059 0.495262
vt 0.816450 0.495262
vt 0.691128 0.422082
vt 0.691128 0.282430
vt 0.864612 0.559102
vt 0.816450 0.559102
vt 0.708841 0.495262
vt 0.768287 0.559102
vt 0.131647 0.564802
vt 0.131551 0.425149
vt 0.206254 0.425149
vt 0.206351 0.564802
vt 0.119358 0.351970
vt 0.183959 0.351970
vt 0.088365 0.288130
vt 0.113640 0.288130
vt 0.560016 0.282430
vt 0.552230 0.422082
vt 0.434694 0.422082
vt 0.434694 0.282430
vt 0.685338 0.282430
vt 0.685338 0.422082
vt 0.554458 0.495262
vt 0.452407 0.495262
vt 0.667625 0.495262
vt 0.560016 0.559102
vt 0.511854 0.559102
vt 0.608179 0.559102
vt 0.490248 0.817279
vt 0.528838 0.865442
vt 0.503564 0.865442
vt 0.464973 0.817279
vt 0.490248 0.913604
vt 0.464973 0.913604
vt 0.508933 0.688191
vt 0.470342 0.813513
vt 0.395638 0.813513
vt 0.434229 0.688191
vt 0.470342 0.562868
vt 0.395638 0.562868
vt 0.825281 0.694682
vt 0.767717 0.672427
vt 0.789571 0.659729
vt 0.847134 0.681984
vt 0.794347 0.781410
vt 0.701439 0.717366
vt 0.776887 0.611396
vt 0.798741 0.598698
vt 0.850204 0.748954
vt 0.686221 0.595324
vt 0.742078 0.562868
vt 0.359771 0.733845
vt 0.263442 0.822815
vt 0.198851 0.785284
vt 0.295180 0.696314
vt 0.389366 0.606099
vt 0.324775 0.568568
vt 0.746303 0.924829
vt 0.765744 0.998008
vt 0.709887 0.998008
vt 0.681711 0.924829
vt 0.746219 0.785176
vt 0.681628 0.785176
vt 0.773177 0.924828
vt 0.837769 0.924828
vt 0.827390 0.998008
vt 0.771534 0.998008
vt 0.837852 0.785176
vt 0.773261 0.785176
vt 0.941772 0.924828
vt 0.920298 0.998008
vt 0.934181 0.785176
vt 0.428905 0.419450
vt 0.301159 0.419450
vt 0.307284 0.346270
vt 0.419715 0.346270
vt 0.301110 0.559102
vt 0.428856 0.559102
vt 0.212189 0.419450
vt 0.233630 0.346270
vt 0.322855 0.282430
vt 0.383886 0.282430
vt 0.212140 0.559102
vt 0.675790 0.785176
vt 0.675838 0.924829
vt 0.534628 0.924829
vt 0.548044 0.785176
vt 0.549683 0.998008
vt 0.671724 0.998008
vt 0.121750 0.839701
vt 0.097609 0.852820
vt 0.097609 0.826582
vt 0.017860 0.284363
vt 0.013487 0.284363
vt 0.007750 0.284363
vt 0.001880 0.284363
vt 0.001880 0.001992
vt 0.026021 0.001992
vt 0.026021 0.284363
vt 0.071454 0.001992
vt 0.078172 0.001992
vt 0.084889 0.001992
vt 0.090833 0.001992
vt 0.090833 0.284363
vt 0.064594 0.284363
vt 0.064594 0.001992
vt 0.048588 0.001992
vt 0.056627 0.001992
vt 0.057470 0.001992
vt 0.057470 0.284363
vt 0.033329 0.284363
vt 0.033329 0.001992
vt 0.039561 0.001992
vt 0.044683 0.001992
vt 0.459183 0.915807
vt 0.371753 0.842152
vt 0.398550 0.826582
vt 0.456114 0.848837
vt 0.365964 0.842152
vt 0.278534 0.915807
vt 0.281603 0.848836
vt 0.339167 0.826582
vn 0.864636 0.000000 -0.502398
vn 0.858548 0.118461 -0.498861
vn 0.858548 0.118461 -0.498861
vn 0.864636 0.000000 -0.502398
vn 0.225690 -0.000660 0.974199
vn 0.214410 -0.097065 0.971909
vn 0.499786 -0.101850 0.860140
vn 0.502398 -0.000691 0.864636
vn -0.864636 -0.000000 0.502399
vn -0.858548 0.118461 0.498861
vn -0.858548 0.118461 0.498861
vn -0.864636 -0.000000 0.502399
vn -0.493355 -0.047502 -0.868530
vn -0.483532 0.157149 -0.861105
vn -0.133150 0.144291 -0.980536
vn -0.168316 -0.053967 -0.984255
vn 0.000000 1.000000 -0.000001
vn 0.000000 1.000000 -0.000001
vn 0.000000 1.000000 -0.000001
vn 0.000000 1.000000 -0.000001
vn 0.000000 -1.000000 -0.000000
vn 0.000000 -1.000000 -0.000000
vn 0.000000 -1.000000 -0.000000
vn 0.000000 -1.000000 -0.000000
vn -0.761415 0.473825 0.442422
vn -0.632775 0.681477 0.367675
vn -0.632775 0.681477 0.367675
vn -0.761415 0.473825 0.442422
vn -0.049073 0.584898 -0.809621
vn -0.383225 0.619738 -0.684882
vn -0.282069 0.820665 -0.496937
vn -0.001649 0.786461 -0.617637
vn 0.761415 0.473825 -0.442422
vn 0.761415 0.473825 -0.442422
vn 0.632775 0.681477 -0.367675
vn 0.632775 0.681477 -0.367675
vn 0.460759 -0.398613 0.792974
vn 0.131041 -0.373694 0.918249
vn 0.055797 -0.540072 0.839767
vn 0.408457 -0.582245 0.702961
vn 0.732869 -0.373694 0.568555
vn 0.701946 -0.540072 0.464321
vn 0.738205 -0.097065 0.667557
vn 0.734608 -0.000660 0.678491
vn 0.000000 -1.000000 -0.000000
vn 0.000000 -1.000000 -0.000000
vn -0.759644 -0.035380 -0.649376
vn -0.766807 0.148508 -0.624461
vn -0.668042 0.575024 -0.472300
vn -0.535869 0.777419 -0.329338
vn 0.000000 1.000000 -0.000000
vn 0.000000 1.000000 -0.000000
vn 0.000000 0.000000 1.000000
vn 0.000000 0.118461 0.992959
vn 0.000000 0.118461 0.992959
vn 0.000000 0.000000 1.000000
vn -0.955714 -0.000660 -0.294296
vn -0.948067 -0.097065 -0.302899
vn -0.994800 -0.101850 -0.000000
vn -1.000000 -0.000691 0.000000
vn 0.000000 0.000000 -1.000000
vn 0.000000 0.118461 -0.992959
vn 0.000000 0.118461 -0.992959
vn 0.000000 0.000000 -1.000000
vn 0.998823 -0.047502 0.009775
vn 0.987468 0.157149 0.014539
vn 0.914701 0.144291 0.377494
vn 0.935584 -0.053967 0.348956
vn 0.000000 1.000000 0.000000
vn 0.000000 1.000000 0.000000
vn 0.000000 1.000000 0.000000
vn 0.000000 1.000000 0.000000
vn 0.000000 -1.000000 0.000000
vn 0.000000 -1.000000 0.000000
vn 0.000000 -1.000000 0.000000
vn 0.000000 -1.000000 0.000000
vn 0.000000 0.473825 -0.880619
vn 0.000000 0.681477 -0.731839
vn 0.000000 0.681477 -0.731839
vn 0.000000 0.473825 -0.880619
vn 0.724682 0.584898 0.364322
vn 0.784705 0.619738 0.012734
vn 0.571381 0.820665 0.005773
vn 0.534860 0.786462 0.308874
vn 0.000000 0.473825 0.880619
vn 0.000000 0.473825 0.880619
vn 0.000000 0.681477 0.731839
vn 0.000000 0.681477 0.731839
vn -0.917119 -0.398613 -0.000000
vn -0.859786 -0.373694 -0.348024
vn -0.754125 -0.540072 -0.373654
vn -0.813013 -0.582245 -0.000000
vn -0.859786 -0.373694 0.348024
vn -0.754125 -0.540072 0.373654
vn -0.948067 -0.097065 0.302899
vn -0.955714 -0.000660 0.294296
vn 0.000000 -1.000000 0.000000
vn 0.000000 -1.000000 0.000000
vn 0.943118 -0.035380 -0.330570
vn 0.925175 0.148508 -0.349281
vn 0.743991 0.575024 -0.340331
vn 0.553978 0.777419 -0.297873
vn 0.000000 1.000000 0.000000
vn 0.000000 1.000000 0.000000
vn -0.864635 0.000000 -0.502401
vn -0.858546 0.118461 -0.498864
vn -0.858546 0.118461 -0.498864
vn -0.864635 0.000000 -0.502401
vn 0.734610 -0.000660 -0.678489
vn 0.738207 -0.097065 -0.667555
vn 0.499789 -0.101850 -0.860138
vn 0.502401 -0.000691 -0.864634
vn 0.864635 -0.000000 0.502401
vn 0.858546 0.118461 0.498864
vn 0.858546 0.118461 0.498864
vn 0.864635 -0.000000 0.502401
vn -0.510262 -0.047502 0.858706
vn -0.508676 0.157149 0.846495
vn -0.785941 0.144291 0.601229
vn -0.771758 -0.053967 0.633622
vn 0.000000 1.000000 0.000000
vn 0.000000 1.000000 0.000000
vn 0.000000 1.000000 0.000000
vn 0.000000 1.000000 0.000000
vn 0.000000 -1.000000 -0.000000
vn 0.000000 -1.000000 -0.000000
vn 0.000000 -1.000000 -0.000000
vn 0.000000 -1.000000 -0.000000
vn 0.761414 0.473825 0.442424
vn 0.632774 0.681477 0.367677
vn 0.632774 0.681477 0.367677
vn 0.761414 0.473825 0.442424
vn -0.679087 0.584898 0.443549
vn -0.405247 0.619738 0.672086
vn -0.292054 0.820665 0.491135
vn -0.535778 0.786461 0.307280
vn -0.761414 0.473825 -0.442424
vn -0.761414 0.473825 -0.442424
vn -0.632774 0.681477 -0.367677
vn -0.632774 0.681477 -0.367677
vn 0.460762 -0.398613 -0.792973
vn 0.732871 -0.373694 -0.568553
vn 0.701947 -0.540072 -0.464319
vn 0.408459 -0.582245 -0.702959
vn 0.131044 -0.373694 -0.918248
vn 0.055800 -0.540072 -0.839767
vn 0.214413 -0.097065 -0.971908
vn 0.225694 -0.000660 -0.974198
vn 0.000000 -1.000000 -0.000000
vn 0.000000 -1.000000 -0.000000
vn -0.188002 -0.035380 0.981531
vn -0.162809 0.148508 0.975417
vn -0.079521 0.575024 0.814263
vn -0.020768 0.777419 0.628640
vn 0.000000 1.000000 0.000000
vn 0.000000 1.000000 0.000000
vn 0.000000 1.000000 0.000000
vn 0.000000 1.000000 0.000000
vn 0.000000 1.000000 0.000000
vn 0.477489 0.000000 -0.878638
vn 0.477489 0.000000 -0.878638
vn 0.477489 0.000000 -0.878638
vn 0.477489 0.000000 -0.878638
vn 0.477489 0.000000 -0.878638
vn 0.477489 0.000000 -0.878638
vn 0.477489 0.000000 -0.878638
vn -1.000000 0.000000 0.000000
vn -1.000000 0.000000 0.000000
vn -1.000000 0.000000 0.000000
vn -1.000000 0.000000 0.000000
vn -1.000000 0.000000 0.000000
vn -1.000000 0.000000 0.000000
vn -1.000000 0.000000 0.000000
vn 0.477489 0.000000 0.878638
vn 0.477489 0.000000 0.878638
vn 0.477489 0.000000 0.878638
vn 0.477489 0.000000 0.878638
vn 0.477489 0.000000 0.878638
vn 0.477489 0.000000 0.878638
vn 0.477489 0.000000 0.878638
vn 0.477489 0.000000 0.878638
s 1
g polySurface7
f 1/17/1 15/16/2 16/22/3 3/23/4
s 2
f 3/1/5 16/2/6 19/3/7 20/4/8
s 3
f 5/8/9 13/7/10 14/12/11 7/13/12
s 4
f 21/14/13 22/15/14 15/16/15 1/17/16
s 5
f 2/27/17 24/28/18 17/29/19 4/30/20
s 6
f 21/38/21 1/39/22 3/40/23 20/41/24
s 3
f 9/37/25 6/32/26 8/31/27 10/36/28
s 4
f 11/21/29 23/20/30 24/25/31 2/26/32
s 1
f 12/33/33 11/34/34 2/27/35 4/30/36
s 2
f 18/6/37 12/5/38 4/9/39 17/10/40
s 3
f 13/44/10 9/45/25 10/46/28 14/47/11
s 4
f 15/16/15 22/15/14 23/20/30 11/21/29
s 1
f 16/48/3 15/49/2 11/50/34 12/51/33
s 2
f 19/3/7 16/2/6 12/5/38 18/6/37
f 9/178/41 18/179/37 17/180/40 6/181/42
f 13/7/43 19/3/7 18/6/37 9/11/41
f 20/4/8 19/3/7 13/7/43 5/8/44
s 6
f 7/42/45 21/38/21 20/41/24 5/43/46
s 4
f 7/18/47 14/19/48 22/15/14 21/14/13
f 23/20/30 22/15/14 14/19/48 10/24/49
f 24/28/31 23/35/30 10/36/49 8/31/50
s 5
f 17/29/19 24/28/18 8/31/51 6/32/52
s 7
f 25/52/53 39/53/54 40/54/55 27/55/56
s 8
f 27/60/57 40/61/58 43/62/59 44/63/60
s 9
f 29/72/61 37/73/62 38/74/63 31/75/64
s 10
f 45/80/65 46/81/66 39/82/67 25/83/68
s 11
f 26/92/69 48/93/70 41/94/71 28/95/72
s 12
f 45/98/73 25/99/74 27/100/75 44/101/76
s 9
f 33/76/77 30/78/78 32/79/79 34/77/80
s 10
f 35/87/81 47/86/82 48/89/83 26/90/84
s 7
f 36/57/85 35/56/86 26/58/87 28/59/88
s 8
f 42/65/89 36/64/90 28/68/91 41/69/92
s 9
f 37/73/62 33/76/77 34/77/80 38/74/63
s 10
f 39/82/67 46/81/66 47/86/82 35/87/81
s 7
f 40/54/55 39/53/54 35/56/86 36/57/85
s 8
f 43/62/59 40/61/58 36/64/90 42/65/89
f 33/70/93 42/65/89 41/69/92 30/71/94
f 37/66/95 43/62/59 42/65/89 33/70/93
f 44/63/60 43/62/59 37/66/95 29/67/96
s 12
f 31/102/97 45/98/73 44/101/76 29/103/98
s 10
f 31/84/99 38/85/100 46/81/66 45/80/65
f 47/86/82 46/81/66 38/85/100 34/88/101
f 48/89/83 47/86/82 34/88/101 32/91/102
s 11
f 41/94/71 48/93/70 32/96/103 30/97/104
s 13
f 49/131/105 63/128/106 64/127/107 51/132/108
s 14
f 51/146/109 64/142/110 67/137/111 68/140/112
s 15
f 53/125/113 61/121/114 62/124/115 55/126/116
s 16
f 69/135/117 70/133/118 63/128/119 49/131/120
s 17
f 50/104/121 72/105/122 65/106/123 52/107/124
s 18
f 69/115/125 49/116/126 51/117/127 68/118/128
s 15
f 57/114/129 54/111/130 56/110/131 58/113/132
s 16
f 59/108/133 71/109/134 72/105/135 50/104/136
s 13
f 60/112/137 59/108/138 50/104/139 52/107/140
s 14
f 66/182/141 60/183/142 52/184/143 65/185/144
s 15
f 61/121/114 57/122/129 58/123/132 62/124/115
s 16
f 63/128/119 70/133/118 71/134/134 59/129/133
s 13
f 64/127/107 63/128/106 59/129/138 60/130/137
s 14
f 67/137/111 64/142/110 60/143/142 66/138/141
f 57/139/145 66/138/141 65/144/144 54/145/146
f 61/136/147 67/137/111 66/138/141 57/139/145
f 68/140/112 67/137/111 61/136/147 53/141/148
s 18
f 55/119/149 69/115/125 68/118/128 53/120/150
s 16
f 55/147/151 62/148/152 70/149/118 69/150/117
f 71/151/134 70/149/118 62/148/152 58/152/153
f 72/105/135 71/109/134 58/113/153 56/110/154
s 17
f 65/106/123 72/105/122 56/110/155 54/111/156
s off
f 73/153/157 74/154/158 75/155/159
f 76/156/160 77/157/161 78/158/162 79/159/163 74/160/164 73/161/165 80/162/166
f 81/163/167 82/164/168 83/165/169 84/166/170 75/167/171 74/168/172 79/169/173
f 85/170/174 86/171/175 80/172/176 73/173/177 75/174/178 84/175/179 87/176/180 88/177/181
