# This file uses centimeters as units for non-parametric coordinates.

g default
v 3.989884 -0.250863 -0.262829
v 13.433792 -0.250863 -0.262829
v 3.989884 6.361470 4.887006
v 13.433792 6.361470 4.887006
v 8.051467 6.361470 3.002175
v 8.046480 -0.250863 -2.175902
vt 0.341651 0.627680
vt 0.500846 0.627680
vt 0.500846 0.949344
vt 0.341651 0.949344
vt 0.202246 0.627680
vt 0.202246 0.949344
vn 0.041043 -0.614992 0.787464
vn -0.267801 -0.592957 0.759398
vn -0.267801 -0.592957 0.759398
vn 0.041043 -0.614992 0.787464
vn 0.345919 -0.577584 0.739417
vn 0.345919 -0.577584 0.739417
s 1
g polySurface7 polySurface6
f 6/1/1 2/2/2 4/3/3 5/4/4
f 1/5/5 6/1/1 5/4/4 3/6/6
g default
v -4.587075 -0.250863 -0.262829
v 4.856833 -0.250863 -0.262829
v -4.587075 6.361470 4.887006
v 4.856833 6.361470 4.887006
v 0.211965 6.361470 3.229562
v 0.211965 -0.250863 -1.920273
vt 0.682655 0.627680
vt 0.860261 0.627680
vt 0.860261 0.929810
vt 0.682655 0.929810
vt 0.499154 0.627680
vt 0.499154 0.929810
vn -0.004200 -0.614449 0.788946
vn -0.270991 -0.591462 0.759432
vn -0.270991 -0.591462 0.759432
vn -0.004200 -0.614449 0.788946
vn 0.262896 -0.592840 0.761201
vn 0.262896 -0.592840 0.761201
s 1
g polySurface6 polySurface8
f 12/7/7 8/8/8 10/9/9 11/10/10
f 7/11/11 12/7/7 11/10/10 9/12/12
g default
v -1.041711 -0.250863 -5.425145
v 8.402197 -0.250863 -5.425145
v -1.041711 6.361470 -0.275310
v 8.402197 6.361470 -0.275310
v 3.719294 6.361470 -1.284865
v 3.719294 -0.250863 -6.692805
vt 0.677326 0.627680
vt 0.860261 0.627680
vt 0.860261 0.929810
vt 0.677326 0.929810
vt 0.491341 0.627680
vt 0.491341 0.929810
vn -0.001505 -0.623903 0.781501
vn -0.186675 -0.612936 0.767764
vn -0.186675 -0.612936 0.767764
vn -0.001505 -0.623903 0.781501
vn 0.183717 -0.613284 0.768200
vn 0.183717 -0.613284 0.768200
s 1
g polySurface6 polySurface9
f 18/13/13 14/14/14 16/15/15 17/16/16
f 13/17/17 18/13/13 17/16/16 15/18/18
g default
v -8.793417 -0.250863 -5.425145
v 0.650492 -0.250863 -5.425145
v -8.793417 6.361470 -0.275310
v 0.650492 6.361470 -0.275310
v -4.027609 6.361470 -1.547312
v -4.482663 -0.250863 -6.697147
vt 0.345119 0.627680
vt 0.493032 0.627680
vt 0.493032 0.949344
vt 0.345119 0.949344
vt 0.194433 0.627680
vt 0.194433 0.949344
vn 0.007003 -0.614589 0.788816
vn -0.201253 -0.597562 0.776155
vn -0.201253 -0.597562 0.776155
vn 0.007003 -0.614589 0.788816
vn 0.214952 -0.604684 0.766911
vn 0.214952 -0.604684 0.766911
s 1
g polySurface6 polySurface10
f 24/19/19 20/20/20 22/21/21 23/22/22
f 19/23/23 24/19/19 23/22/22 21/24/24
