# This file uses centimeters as units for non-parametric coordinates.

g default
v -1.723144 0.092936 -2.474380
v 1.781468 0.092936 -2.474380
v 0.029162 11.390092 -8.307721
v 1.781468 4.966087 -3.438684
v -1.723144 4.966087 -3.438684
v 1.185784 8.098527 -4.672330
v -0.983728 8.854358 -4.672330
vt 0.102003 0.783317
vt 0.101173 0.683612
vt 0.156620 0.683450
vt 0.158424 0.783161
vt 0.114586 0.871067
vt 0.149529 0.856707
vt 0.130242 0.962124
vn 0.022068 0.262996 0.964544
vn 0.000000 0.194117 0.980978
vn 0.000000 0.194117 0.980978
vn 0.022068 0.262996 0.964544
vn 0.263151 0.755340 0.600178
vn 0.263151 0.755340 0.600178
vn 0.263151 0.755340 0.600178
vn 0.044015 0.330429 0.942804
vn 0.044015 0.330429 0.942804
s 1
g pPlane1
f 5/1/1 1/2/2 2/3/3 4/4/4
s off
f 7/5/5 6/6/6 3/7/7
s 1
f 6/6/8 7/5/9 5/1/1 4/4/4
g default
v -2.339396 0.092935 1.873951
v -2.339396 0.092935 -1.630661
v -8.172738 11.390092 0.121645
v -3.303701 4.966086 -1.630661
v -3.303701 4.966086 1.873951
v -4.537347 8.098527 -1.034978
v -4.537347 8.854358 1.134534
vt 0.101173 0.777292
vt 0.102733 0.683648
vt 0.159433 0.683450
vt 0.159215 0.777097
vt 0.112567 0.862464
vt 0.149177 0.849314
vt 0.130176 0.962124
vn 0.964544 0.262996 -0.022068
vn 0.980978 0.194117 0.000000
vn 0.980978 0.194117 0.000000
vn 0.964544 0.262996 -0.022068
vn 0.600178 0.755340 -0.263151
vn 0.600178 0.755340 -0.263151
vn 0.600178 0.755340 -0.263151
vn 0.942804 0.330429 -0.044015
vn 0.942804 0.330429 -0.044015
s 1
g pPlane2
f 12/8/10 8/9/11 9/10/12 11/11/13
s off
f 14/12/14 13/13/15 10/14/16
s 1
f 13/13/17 14/12/18 12/8/10 11/11/13
g default
v 1.969636 0.092935 -1.630661
v 1.969636 0.092935 1.873951
v 7.802979 11.390092 0.121645
v 2.933942 4.966086 1.873951
v 2.933942 4.966086 -1.630661
v 4.167588 8.098527 1.278267
v 4.167588 8.854358 -0.891244
vt 0.101796 0.784071
vt 0.101173 0.684565
vt 0.156374 0.683450
vt 0.157985 0.782995
vt 0.114427 0.871475
vt 0.149365 0.856561
vt 0.131744 0.962124
vn -0.964544 0.262997 0.022068
vn -0.980978 0.194117 -0.000000
vn -0.980978 0.194117 -0.000000
vn -0.964544 0.262997 0.022068
vn -0.600178 0.755340 0.263150
vn -0.600178 0.755340 0.263150
vn -0.600178 0.755340 0.263150
vn -0.942804 0.330429 0.044015
vn -0.942804 0.330429 0.044015
s 1
g pPlane3
f 19/15/19 15/16/20 16/17/21 18/18/22
s off
f 21/19/23 20/20/24 17/21/25
s 1
f 20/20/26 21/19/27 19/15/19 18/18/22
g default
v 1.781468 0.092935 1.904147
v -1.723144 0.092935 1.904147
v 0.029162 11.390092 7.737488
v -1.723144 4.966086 2.868452
v 1.781468 4.966086 2.868452
v -1.127461 8.098527 4.102098
v 1.042051 8.854358 4.102098
vt 0.101173 0.781503
vt 0.103405 0.683450
vt 0.158870 0.684295
vt 0.157717 0.782323
vt 0.111616 0.868731
vt 0.147289 0.855260
vt 0.127993 0.962124
vn -0.022068 0.262996 -0.964544
vn 0.000000 0.194117 -0.980978
vn 0.000000 0.194117 -0.980978
vn -0.022068 0.262996 -0.964544
vn -0.263151 0.755339 -0.600178
vn -0.263151 0.755339 -0.600178
vn -0.263151 0.755339 -0.600178
vn -0.044015 0.330429 -0.942804
vn -0.044015 0.330429 -0.942804
s 1
g pPlane4
f 26/22/28 22/23/29 23/24/30 25/25/31
s off
f 28/26/32 27/27/33 24/28/34
s 1
f 27/27/35 28/26/36 26/22/28 25/25/31
